<?xml version="1.0" encoding="utf-8"?>
<!-- Generator: Adobe Illustrator 14.0.0, SVG Export Plug-In . SVG Version: 6.00 Build 43363)  -->
<!DOCTYPE svg PUBLIC "-//W3C//DTD SVG 1.1//EN" "http://www.w3.org/Graphics/SVG/1.1/DTD/svg11.dtd">
<svg version="1.1" id="Layer_1" xmlns="http://www.w3.org/2000/svg" xmlns:xlink="http://www.w3.org/1999/xlink" x="0px" y="0px"
	 width="100%" height="100%" viewBox="0 0 27.303 27.303" enable-background="new 0 0 27.303 27.303" xml:space="preserve">
<path fill-rule="evenodd" clip-rule="evenodd" fill="#ffffff" d="M20.719,17.322c0.234,0.231,0.35,0.515,0.35,0.851
	c0,0.332-0.115,0.615-0.35,0.847l-1.697,1.7c-0.235,0.231-0.519,0.348-0.851,0.348c-0.331,0-0.615-0.116-0.846-0.348l-3.674-3.673
	l-3.67,3.673c-0.235,0.231-0.518,0.348-0.85,0.348c-0.332,0-0.615-0.116-0.85-0.348l-1.697-1.7
	c-0.231-0.231-0.351-0.515-0.351-0.847c0-0.336,0.12-0.619,0.351-0.851l3.669-3.673l-3.669-3.67
	c-0.231-0.231-0.351-0.515-0.351-0.85c0-0.332,0.12-0.615,0.351-0.847l1.697-1.7C8.516,6.351,8.8,6.235,9.131,6.235
	c0.332,0,0.615,0.115,0.85,0.347l3.67,3.673l3.674-3.673c0.23-0.232,0.515-0.347,0.846-0.347c0.332,0,0.615,0.115,0.851,0.347
	l1.697,1.7c0.234,0.231,0.35,0.515,0.35,0.847c0,0.335-0.115,0.619-0.35,0.85l-3.67,3.67L20.719,17.322z M13.651,0
	C6.112,0,0,6.112,0,13.651c0,7.54,6.112,13.651,13.651,13.651c7.54,0,13.651-6.111,13.651-13.651C27.303,6.112,21.191,0,13.651,0z"
	/>
</svg>
