<?xml version="1.0" encoding="utf-8"?>
<!-- Generator: Adobe Illustrator 14.0.0, SVG Export Plug-In . SVG Version: 6.00 Build 43363)  -->
<!DOCTYPE svg PUBLIC "-//W3C//DTD SVG 1.1//EN" "http://www.w3.org/Graphics/SVG/1.1/DTD/svg11.dtd">
<svg version="1.1" id="Layer_1" xmlns="http://www.w3.org/2000/svg" xmlns:xlink="http://www.w3.org/1999/xlink" x="0px" y="0px"
	 width="201px" height="96px" viewBox="0 0 201 96" enable-background="new 0 0 201 96" xml:space="preserve">
<path fill-rule="evenodd" clip-rule="evenodd" fill="#FFFFFF" d="M153,96H13C5.847,96,0,90.156,0,83V13C0,5.844,5.844,0,13,0h140
	c26.508,0,48,21.492,48,48S179.507,96,153,96"/>
<path fill-rule="evenodd" clip-rule="evenodd" fill="#6ACFE8" d="M153,93c24.853,0,45-20.147,45-45c0-24.853-20.147-45-45-45H13
	C7.503,3,3,7.503,3,13v70c0,5.496,4.5,10,10,10H153z"/>
<path fill-rule="evenodd" clip-rule="evenodd" fill="#FFFFFF" d="M153,12c-19.883,0-36,16.118-36,36s16.117,36,36,36
	c19.882,0,36-16.118,36-36S172.881,12,153,12"/>
<path fill-rule="evenodd" clip-rule="evenodd" fill="#6ACFE8" d="M153,41.581c3.545,0,6.42,2.874,6.42,6.42
	c0,3.545-2.875,6.42-6.42,6.42c-3.546,0-6.42-2.875-6.42-6.42C146.58,44.455,149.454,41.581,153,41.581 M153,34.119
	c7.666,0,13.881,6.215,13.881,13.882c0,2.202-0.514,4.285-1.427,6.135l0.432-0.269c0,0-0.994,2.771-0.497,4.762
	s0.497,4.478,0.497,4.478s-0.497-0.498-2.279-1.225c-1.249-0.509-5.949-0.305-8.655-0.137c-0.638,0.09-1.289,0.137-1.951,0.137l0,0
	c-7.667,0-13.882-6.215-13.882-13.881C139.118,40.333,145.333,34.119,153,34.119z M153,24.801c12.812,0,23.198,10.387,23.198,23.199
	v18.09c0,2.821-2.287,5.108-5.108,5.108c-2.457,0-4.509-1.734-4.998-4.046c-3.726,2.553-8.234,4.046-13.092,4.046
	C140.187,71.199,129.8,60.812,129.8,48C129.8,35.188,140.187,24.801,153,24.801z"/>
</svg>
