<?xml version="1.0" encoding="utf-8"?>
<!-- Generator: Adobe Illustrator 14.0.0, SVG Export Plug-In . SVG Version: 6.00 Build 43363)  -->
<!DOCTYPE svg PUBLIC "-//W3C//DTD SVG 1.1//EN" "http://www.w3.org/Graphics/SVG/1.1/DTD/svg11.dtd">
<svg version="1.1" id="Layer_1" xmlns="http://www.w3.org/2000/svg" xmlns:xlink="http://www.w3.org/1999/xlink" x="0px" y="0px"
	 width="100%" height="100%" viewBox="0 0 25.941 25.94" enable-background="new 0 0 25.941 25.94" xml:space="preserve">
<path fill="#8ADDF1" d="M23.566,2.147c0.295,0.216,0.415,0.499,0.363,0.854l-3.424,20.521c-0.044,0.26-0.184,0.459-0.427,0.603
	c-0.124,0.072-0.26,0.107-0.411,0.107c-0.1,0-0.207-0.023-0.323-0.067l-6.048-2.474l-3.236,3.941
	C9.9,25.836,9.681,25.94,9.406,25.94c-0.115,0-0.211-0.016-0.295-0.052c-0.168-0.063-0.304-0.168-0.407-0.315
	c-0.1-0.147-0.151-0.312-0.151-0.486v-4.665L20.095,6.277L5.815,18.634l-5.279-2.167c-0.331-0.123-0.507-0.366-0.535-0.733
	c-0.016-0.355,0.124-0.619,0.427-0.786L22.661,2.12C22.792,2.04,22.936,2,23.088,2C23.263,2,23.427,2.048,23.566,2.147"/>
</svg>
